<?xml version="1.0" encoding="UTF-8"?>
<svg width="48px" height="48px" viewBox="0 0 48 48" version="1.1" xmlns="http://www.w3.org/2000/svg" xmlns:xlink="http://www.w3.org/1999/xlink">
    <!-- Generator: Sketch 47.1 (45422) - http://www.bohemiancoding.com/sketch -->
    <title>professor</title>
    <desc>Created with Sketch.</desc>
    <defs>
        <linearGradient x1="123.245433%" y1="-1091.47685%" x2="100%" y2="50%" id="linearGradient-1">
            <stop stop-color="#FE430A" offset="0%"></stop>
            <stop stop-color="#FBA648" offset="100%"></stop>
        </linearGradient>
        <linearGradient x1="50%" y1="0%" x2="50%" y2="118.939845%" id="linearGradient-2">
            <stop stop-color="#FE430A" offset="0%"></stop>
            <stop stop-color="#FC8232" offset="64.0429574%"></stop>
            <stop stop-color="#FBA648" offset="100%"></stop>
        </linearGradient>
    </defs>
    <g id="Page-1" stroke="none" stroke-width="1" fill="none" fill-rule="evenodd">
        <g id="HOME-PAGE-V2" transform="translate(-110.000000, -982.000000)" fill-rule="nonzero">
            <g id="Group-16" transform="translate(107.000000, 944.000000)">
                <g id="professor" transform="translate(3.000000, 38.000000)">
                    <path d="M4.7735625,41.7880313 C4.88071875,41.7880313 4.98871875,41.7664688 5.09278125,41.7208125 C7.64475,40.6095938 11.9543437,40.03125 17.9063437,40.0007813 L18.4839375,41.1575625 C18.6823125,41.5528125 19.1631563,41.7143438 19.5575625,41.515125 C19.9527187,41.3175 20.1135937,40.8375 19.915125,40.4423438 L19.1159062,38.8423125 C18.979875,38.5710938 18.703125,38.3999063 18.3999375,38.3999063 C11.88075,38.3999063 7.3183125,39.0062813 4.4535,40.2535313 C4.0486875,40.4303438 3.86390625,40.9015313 4.039875,41.3070938 C4.17121875,41.6080313 4.46484375,41.7880313 4.7735625,41.7880313 Z" id="Shape" fill="url(#linearGradient-1)"></path>
                    <path d="M46.3999687,43.2 L44.7999375,43.2 L44.7999375,39.1999688 C44.7999375,38.988 44.7150938,38.784 44.5655625,38.634375 L39.7591875,33.82875 C39.9095625,33.5159063 40.0000312,33.1695938 40.0000312,32.7999375 C40.0000312,31.47675 38.9232187,30.3999375 37.6000312,30.3999375 C36.2768437,30.3999375 35.2000312,31.47675 35.2000312,32.7999375 C35.2000312,34.123125 36.2768437,35.1999375 37.6000312,35.1999375 C37.9695937,35.1999375 38.31525,35.1095625 38.628,34.9599375 L43.2,39.5310938 L43.2,43.2 L1.60003125,43.2 C0.7175625,43.2 0,43.9175625 0,44.8000313 L0,47.2000313 C0,47.6415937 0.35840625,48 0.79996875,48 C1.24153125,48 1.5999375,47.6415937 1.5999375,47.2000312 L1.5999375,44.8000312 L46.3999687,44.8000312 L46.3999687,47.2000312 C46.3999687,47.6415937 46.7575312,48 47.1999375,48 C47.6423438,48 47.9999063,47.6415937 47.9999063,47.2000312 L47.9999063,44.8000312 C48,43.9175625 47.2815937,43.2 46.3999687,43.2 Z M37.6000313,33.6 C37.1584687,33.6 36.8000625,33.2408438 36.8000625,32.8000313 C36.8000625,32.3592188 37.1584687,32.0000625 37.6000313,32.0000625 C38.0415938,32.0000625 38.4,32.3592188 38.4,32.8000313 C38.4,33.2408438 38.0415937,33.6 37.6000313,33.6 Z" id="Shape" fill="url(#linearGradient-1)"></path>
                    <path d="M11.4215625,23.9295938 C12.0047812,25.4479687 13.9343438,30.3439687 15.3344063,32.4439687 L15.4607813,32.635125 C16.488,34.1926875 18.2063438,36.799875 24,36.799875 C29.7928125,36.799875 31.512,34.1926875 32.5392188,32.635125 L32.6655937,32.4439687 C34.0655625,30.3439687 35.994375,25.4479687 36.5784375,23.9295937 C37.6232813,23.669625 38.4,22.7239687 38.4,21.6 L38.4,18.4000312 C38.4,17.356875 37.7311875,16.4671875 36.7999688,16.1368125 L36.7999688,12 C36.7999688,8.8415625 35.13675,3.00721875 28.9847813,2.44396875 C28.9727813,2.06634375 28.848,1.76240625 28.7087813,1.53759375 C27.9224063,0.2664375 25.7144063,0 24,0 C9.7648125,0 9.6,13.464 9.6,13.6000313 C9.6,14.0415938 9.9575625,14.39925 10.398375,14.39925 L10.3999687,14.39925 C10.8407812,14.39925 11.1983438,14.0424375 11.1999375,13.600875 C11.2015313,13.1113125 11.3815313,1.60003125 23.9999063,1.60003125 C26.2622813,1.60003125 27.16875,2.08959375 27.3479063,2.3791875 C27.37275,2.41996875 27.4407188,2.5295625 27.283875,2.84240625 C27.1598438,3.090375 27.1734375,3.38484375 27.3190313,3.6208125 C27.4654688,3.85603125 27.72225,4.00003125 27.9998438,4.00003125 C35.0926875,4.00003125 35.199,11.6744063 35.1998438,12 L35.1998438,16.8 C35.1998438,17.2415625 35.5574063,17.5999688 35.9998125,17.5999688 C36.441375,17.5999688 36.7997813,17.959125 36.7997813,18.3999375 L36.7997813,21.6 C36.7997813,22.0408125 36.441375,22.3999687 35.9998125,22.3999687 C35.66625,22.3999687 35.3678438,22.6071563 35.2501875,22.9191563 C35.2270313,22.9823437 32.864625,29.2607813 31.3341563,31.5559687 L31.203,31.7543437 C30.2445938,33.2087813 28.9309688,35.1999375 23.9998125,35.1999375 C19.0678125,35.1999375 17.7550313,33.2087813 16.796625,31.7543437 L16.6654688,31.5559687 C15.1350938,29.2607813 12.7726875,22.9823437 12.7486875,22.9191562 C12.631875,22.6071562 12.3334688,22.3999687 11.9999063,22.3999687 C11.5590938,22.3999687 11.1999375,22.0408125 11.1999375,21.6 L11.1999375,18.4000312 C11.1999375,18.1831875 11.286375,17.9864062 11.4270938,17.8424062 C11.7175313,18.4944375 12.3103125,19.0808437 13.3063125,19.1800312 L16.0439063,21.232875 C16.2575625,22.7911875 17.5831875,24 19.2,24 L20.8000313,24 C22.5647813,24 24,22.5647812 24,20.8000312 C24,22.5647812 25.4352188,24 27.1999688,24 L28.8,24 C30.4159688,24 31.7431875,22.7911875 31.956,21.2320312 L34.8799688,19.0400625 C35.2335938,18.7752187 35.3055938,18.2736562 35.04,17.9200313 C34.7751563,17.5664062 34.2735938,17.4936563 33.9199688,17.76 L31.8808125,19.289625 C31.5760313,18.3144375 30.6751875,17.6000625 29.5999688,17.6000625 L26.4,17.6000625 C25.0768125,17.6000625 24,18.676875 24,20.0000625 C24,18.676875 22.9231875,17.6000625 21.6,17.6000625 L18.4000313,17.6000625 C17.3256563,17.6000625 16.4248125,18.3144375 16.1192813,19.289625 L14.5928437,18.1448437 C15.2224687,16.6232812 15.7928437,14.3728125 15.9544688,12.7928437 C18.4760625,12.7480312 25.7713125,12.4400625 29.0168437,10.4144062 C29.752875,13.2559688 32.1152813,15.64725 32.2344375,15.7656562 C32.5471875,16.0784062 33.052875,16.0784062 33.365625,15.7656562 C33.678375,15.4528125 33.678375,14.9472187 33.365625,14.6344687 C33.336,14.6048437 30.4000312,11.6360625 30.4000312,8.80003125 C30.4000312,8.440875 30.1600312,8.12484375 29.813625,8.02884375 C29.4688125,7.93284375 29.0984062,8.08003125 28.9144687,8.388 C27.749625,10.3279687 20.1936562,11.2000312 15.2000625,11.2000312 C14.7585,11.2000312 14.4000937,11.5584375 14.4000937,12 C14.4000937,13.2984375 13.7865,15.8920312 13.1337187,17.4880312 C12.8785312,17.3344687 12.8065312,17.0480625 12.8001562,16.8 C12.8001562,16.3584375 12.44175,16.0000312 12.0001875,16.0000312 C10.677,16.0000312 9.6001875,17.0768437 9.6001875,18.4000313 L9.6001875,21.6 C9.6,22.7239688 10.3768125,23.669625 11.4215625,23.9295938 Z M25.6000313,19.9999688 C25.6000313,19.5591563 25.9584375,19.2 26.4,19.2 L29.5999688,19.2 C30.0415312,19.2 30.3999375,19.5591563 30.3999375,19.9999688 L30.3999375,20.7999375 C30.3999375,21.6823125 29.682375,22.3999688 28.7999062,22.3999688 L27.199875,22.3999688 C26.3175,22.3999688 25.5998437,21.6824063 25.5998437,20.7999375 L25.5998437,19.9999688 L25.6000313,19.9999688 Z M17.5999688,19.9999688 C17.5999688,19.5591563 17.959125,19.2 18.3999375,19.2 L21.6,19.2 C22.0408125,19.2 22.3999688,19.5591563 22.3999688,19.9999688 L22.3999688,20.7999375 C22.3999688,21.6823125 21.6824063,22.3999688 20.7999375,22.3999688 L19.2,22.3999688 C18.317625,22.3999688 17.5999688,21.6824063 17.5999688,20.7999375 L17.5999688,19.9999688 Z" id="Shape" fill="url(#linearGradient-2)"></path>
                    <path d="M27.9991875,28.8024375 C28.0000312,28.361625 27.6432187,28.0024688 27.2024062,28.0000313 C27.1872187,28.0000313 25.7567812,27.984 24.3575625,27.2840625 C24.13275,27.1720313 23.8671562,27.1720313 23.6423437,27.2840625 C22.243125,27.9840938 20.8119375,28.0000313 20.7999375,28.0000313 C20.358375,28.0000313 19.9999687,28.3584375 19.9999687,28.8 C19.9999687,29.2415625 20.358375,29.5999688 20.7999375,29.5999688 C20.8679062,29.5999688 22.3791562,29.5911563 23.9999062,28.8824063 C25.6199062,29.5911563 27.1319062,29.5999688 27.199875,29.5999688 C27.6407812,29.5999688 27.9975937,29.2431563 27.9991875,28.8024375 Z" id="Shape" fill="#FC7D2E"></path>
                    <path d="M29.597625,38.4328125 C29.2984688,38.4344063 29.0240625,38.6024063 28.8871875,38.8695938 L28.0872188,40.4359688 C27.8864063,40.8295313 28.04325,41.3119688 28.4360625,41.5127813 C28.5520313,41.5719375 28.6769063,41.5999688 28.79925,41.5999688 C29.0904375,41.5999688 29.3712188,41.4407813 29.512875,41.1639375 L30.0897188,40.03275 C34.4625,40.04475 37.984125,40.3719375 40.564875,41.0055938 C40.9952813,41.112 41.4272813,40.8488438 41.5320938,40.4200313 C41.6376563,39.9904688 41.3760938,39.557625 40.9465313,39.4520625 C38.1448125,38.7631875 34.3448438,38.4047813 29.597625,38.4328125 Z" id="Shape" fill="url(#linearGradient-1)"></path>
                    <path d="M23.2000312,39.1999687 L23.2000312,40.8 C23.2000312,41.2415625 23.5584375,41.5999687 24,41.5999687 C24.4415625,41.5999687 24.7999687,41.2415625 24.7999687,40.8 L24.7999687,39.1999687 C24.7999687,38.7584062 24.4415625,38.4 24,38.4 C23.5584375,38.4 23.2000312,38.7584062 23.2000312,39.1999687 Z" id="Shape" fill="url(#linearGradient-1)"></path>
                    <path d="M23.2000312,30.4000313 C22.7584687,30.4000313 22.4000625,30.7584375 22.4000625,31.2 C22.4000625,31.6415625 22.7584688,31.9999688 23.2000312,31.9999688 L24.8000625,31.9999688 C25.2424688,31.9999688 25.6000313,31.6415625 25.6000313,31.2 C25.6000313,30.7584375 25.2424688,30.4000313 24.8000625,30.4000313 L23.2000312,30.4000313 Z" id="Shape" fill="#FC7D2E"></path>
                </g>
            </g>
        </g>
    </g>
</svg>