<?xml version="1.0" encoding="UTF-8"?>
<svg width="40px" height="40px" viewBox="0 0 40 40" version="1.1" xmlns="http://www.w3.org/2000/svg" xmlns:xlink="http://www.w3.org/1999/xlink">
    <!-- Generator: Sketch 47.1 (45422) - http://www.bohemiancoding.com/sketch -->
    <title>refund (1)</title>
    <desc>Created with Sketch.</desc>
    <defs></defs>
    <g id="Page-1" stroke="none" stroke-width="1" fill="none" fill-rule="evenodd">
        <g id="HOME-PAGE-V2" transform="translate(-994.000000, -739.000000)" fill-rule="nonzero" fill="#FFFFFF">
            <g id="Group-40" transform="translate(994.000000, 734.000000)">
                <g id="refund-(1)" transform="translate(0.000000, 5.000000)">
                    <path d="M39.1675,19.166875 C38.7060938,19.166875 38.3325,19.5397656 38.3325,20 C38.3325,22.475625 37.8490625,24.8767188 36.8932813,27.13625 C35.9692188,29.3189062 34.6484375,31.2792969 32.9638281,32.9639063 C31.2792188,34.6485156 29.3188281,35.9692969 27.1361719,36.8933594 C24.8766406,37.8491406 22.4755469,38.3325781 19.9999219,38.3325781 C17.5242969,38.3325781 15.1232031,37.8491406 12.8642969,36.8933594 C10.6816406,35.9692969 8.720625,34.6485156 7.03601563,32.9639063 C5.35203125,31.279375 4.03,29.3189062 3.1065625,27.13625 C2.15132813,24.8767187 1.66671875,22.475625 1.66671875,20 C1.66671875,17.524375 2.15132813,15.1232812 3.1065625,12.864375 C4.03,10.6811719 5.35203125,8.72070312 7.03601563,7.03609375 C8.72054688,5.35210937 10.6816406,4.03007812 12.8642969,3.10664062 C15.1232031,2.15085937 17.5242969,1.66679687 19.9999219,1.66679687 C22.4755469,1.66679687 24.8766406,2.15078125 27.1361719,3.10664062 C29.1552344,3.96117187 30.98625,5.15804687 32.5829687,6.66679687 L29.5239062,6.66679687 C29.0649219,6.66679687 28.6914062,7.0396875 28.6914062,7.49992187 C28.6914062,7.96015625 29.0649219,8.33304687 29.5239062,8.33304687 L34.5239063,8.33304687 C34.9853125,8.33304687 35.3589062,7.96015625 35.3589062,7.49992187 L35.3589062,2.5 C35.3589062,2.03976563 34.9853906,1.666875 34.5239063,1.666875 C34.0649219,1.666875 33.6914062,2.03976562 33.6914062,2.5 L33.6914062,5.42171875 C30.1123438,2.05929688 25.2978125,0 20,0 C8.95445313,0 0,8.95445313 0,20 C0,31.0449219 8.95445313,40 20,40 C31.0449219,40 40,31.0449219 40,20 C40,19.5397656 39.6264844,19.166875 39.1675,19.166875 Z" id="Shape"></path>
                    <path d="M39.1675,19.166875 C38.7060938,19.166875 38.3325,19.5397656 38.3325,20 C38.3325,22.475625 37.8490625,24.8767188 36.8932813,27.13625 C35.9692188,29.3189062 34.6484375,31.2792969 32.9638281,32.9639063 C31.2792188,34.6485156 29.3188281,35.9692969 27.1361719,36.8933594 C24.8766406,37.8491406 22.4755469,38.3325781 19.9999219,38.3325781 C17.5242969,38.3325781 15.1232031,37.8491406 12.8642969,36.8933594 C10.6816406,35.9692969 8.720625,34.6485156 7.03601563,32.9639063 C5.35203125,31.279375 4.03,29.3189062 3.1065625,27.13625 C2.15132813,24.8767187 1.66671875,22.475625 1.66671875,20 C1.66671875,17.524375 2.15132813,15.1232812 3.1065625,12.864375 C4.03,10.6811719 5.35203125,8.72070312 7.03601563,7.03609375 C8.72054688,5.35210937 10.6816406,4.03007812 12.8642969,3.10664062 C15.1232031,2.15085937 17.5242969,1.66679687 19.9999219,1.66679687 C22.4755469,1.66679687 24.8766406,2.15078125 27.1361719,3.10664062 C29.1552344,3.96117187 30.98625,5.15804687 32.5829687,6.66679687 L29.5239062,6.66679687 C29.0649219,6.66679687 28.6914062,7.0396875 28.6914062,7.49992187 C28.6914062,7.96015625 29.0649219,8.33304687 29.5239062,8.33304687 L34.5239063,8.33304687 C34.9853125,8.33304687 35.3589062,7.96015625 35.3589062,7.49992187 L35.3589062,2.5 C35.3589062,2.03976563 34.9853906,1.666875 34.5239063,1.666875 C34.0649219,1.666875 33.6914062,2.03976562 33.6914062,2.5 L33.6914062,5.42171875 C30.1123438,2.05929688 25.2978125,0 20,0 C8.95445313,0 0,8.95445313 0,20 C0,31.0449219 8.95445313,40 20,40 C31.0449219,40 40,31.0449219 40,20 C40,19.5397656 39.6264844,19.166875 39.1675,19.166875 Z" id="Shape" transform="translate(20.000000, 20.000000) rotate(180.000000) translate(-20.000000, -20.000000) "></path>
                </g>
            </g>
        </g>
    </g>
</svg>