<?xml version="1.0" encoding="UTF-8"?>
<svg width="44px" height="43px" viewBox="0 0 44 43" version="1.1" xmlns="http://www.w3.org/2000/svg" xmlns:xlink="http://www.w3.org/1999/xlink">
    <!-- Generator: Sketch 47.1 (45422) - http://www.bohemiancoding.com/sketch -->
    <title>Page 1</title>
    <desc>Created with Sketch.</desc>
    <defs>
        <polygon id="path-1" points="1.30290627e-16 19.207287 1.30290627e-16 0.0348517366 16.1714229 0.0348517366 16.1714229 19.207287"></polygon>
        <polygon id="path-3" points="0.0762951493 0.054327957 1.43741223 0.054327957 1.43741223 5.03435446 0.0762951493 5.03435446 0.0762951493 0.054327957"></polygon>
    </defs>
    <g id="Page-1" stroke="none" stroke-width="1" fill="none" fill-rule="evenodd">
        <g id="HOME-PAGE-V2" transform="translate(-572.000000, -737.000000)">
            <g id="Group-49" transform="translate(572.500000, 734.000000)">
                <g id="Page-1" transform="translate(0.000000, 3.000000)">
                    <g id="Group-3" transform="translate(26.042707, 14.070941)" fill="#FFFFFF">
                        <path d="M8.51425011,1.37428905 C5.68321732,1.37428905 3.59090815,2.26390935 2.33423412,3.01028493 C1.75666678,3.35318489 1.39796705,3.98827871 1.39796705,4.66755926 L1.39796705,19.5196456 C1.39796705,23.4352425 4.59033105,26.6206718 8.51425011,26.6206718 C12.4381692,26.6206718 15.6305332,23.4352425 15.6305332,19.5196456 L15.6305332,4.66755926 C15.6305332,3.98827871 15.2718334,3.35318489 14.6942661,3.01028493 C13.4375921,2.26390935 11.3452829,1.37428905 8.51425011,1.37428905 M8.51425011,27.9788707 C3.83981109,27.9788707 0.0368499764,24.1840629 0.0368499764,19.5196456 L0.0368499764,4.66755926 C0.0368499764,3.51191307 0.650441555,2.42970017 1.63806811,1.84313932 C3.04147056,1.00965792 5.37379004,0.0160901299 8.51425011,0.0160901299 C11.6547102,0.0160901299 13.9870297,1.00965792 15.3904321,1.84313932 C16.3780587,2.42970017 16.9916502,3.51191307 16.9916502,4.66755926 L16.9916502,19.5196456 C16.9916502,24.1840629 13.1886891,27.9788707 8.51425011,27.9788707" id="Fill-1"></path>
                    </g>
                    <path d="M34.5125572,26.8923025 C34.1366167,26.8923025 33.8319987,26.5883376 33.8319987,26.213203 L33.8319987,17.2490901 C33.8319987,16.8739556 34.1366167,16.5699907 34.5125572,16.5699907 C34.8884978,16.5699907 35.1931158,16.8739556 35.1931158,17.2490901 L35.1931158,26.213203 C35.1931158,26.5883376 34.8884978,26.8923025 34.5125572,26.8923025" id="Fill-4" fill="#FFFFFF"></path>
                    <path d="M39.3498403,28.2280459 C39.2894067,28.2280459 39.2278842,28.2198967 39.1667247,28.2029645 L34.5444618,26.9172934 L29.7507889,28.2045037 C29.3877337,28.3022035 29.0145154,28.087427 28.9166964,27.7252406 C28.8190589,27.3630542 29.0340247,26.990455 29.3969893,26.8930269 L34.3707833,25.5574646 C34.488656,25.5256827 34.6128806,25.5263166 34.7303904,25.5590039 L39.53223,26.8945662 C39.8942871,26.9953445 40.1059862,27.3697547 40.0050821,27.7311261 C39.9211465,28.0313787 39.6476527,28.2280459 39.3498403,28.2280459" id="Fill-6" fill="#FFFFFF"></path>
                    <g id="Group-10" transform="translate(0.000000, 7.189400)">
                        <mask id="mask-2" fill="white">
                            <use xlink:href="#path-1"></use>
                        </mask>
                        <g id="Clip-9"></g>
                        <path d="M10.3374937,19.207287 C10.292486,19.207287 10.2468433,19.2027597 10.201019,19.1935239 C9.83279144,19.1186419 9.59486818,18.7601679 9.6699111,18.3925487 C9.85810822,17.4699695 10.2100931,16.599364 10.7161564,15.8049987 L11.066145,15.2552903 C11.6359086,14.3609616 12.3157412,13.4676289 13.14448,12.5243145 C14.2186736,11.3014827 14.8103059,9.73140475 14.8103059,8.10319588 C14.8103059,6.28094565 14.0907286,4.57604382 12.7840562,3.30259651 C11.4778375,2.02951138 9.7517596,1.35131738 7.92323492,1.3948703 C4.30865241,1.479803 1.36491913,4.48594996 1.361108,8.0960427 C1.35938392,9.73194803 1.95437357,11.3081832 3.03655239,12.5347273 C3.86964678,13.4788567 4.55283681,14.3736381 5.12523191,15.2700494 L5.46796119,15.8069002 C5.97393378,16.5995451 6.32655385,17.4683397 6.51583986,18.389108 C6.59142723,18.7564555 6.35422989,19.1153822 5.98591161,19.190717 C5.61850074,19.2659612 5.2579862,19.0294535 5.18248957,18.6620154 C5.02668704,17.9041404 4.73640614,17.189094 4.31999505,16.5366152 L3.97717503,15.9997644 C3.44307269,15.1631139 2.80116987,14.3232942 2.01498865,13.4322252 C0.713397757,11.9572211 -0.0020961203,10.0615376 -9.07411386e-06,8.09459395 C0.00452798281,3.75379019 3.54452128,0.139170116 7.89111256,0.0370335573 C10.0908592,-0.0130387097 12.1645665,0.80016026 13.7351141,2.33094099 C15.3062062,3.86217446 16.1714229,5.91214937 16.1714229,8.10319588 C16.1714229,10.0608133 15.4599217,11.9489814 14.1679493,13.4196392 C13.38567,14.310165 12.7468524,15.1488981 12.2149278,15.9838282 L11.8648485,16.5335366 C11.4482559,17.1873736 11.1585195,17.9039593 11.0037151,18.6634642 C10.9380185,18.9852668 10.6543617,19.207287 10.3374937,19.207287" id="Fill-8" fill="#FFFFFF" mask="url(#mask-2)"></path>
                    </g>
                    <path d="M10.4207849,28.2957747 L5.70224574,28.2957747 C5.3263052,28.2957747 5.0216872,27.9918098 5.0216872,27.6166753 C5.0216872,27.2415407 5.3263052,26.9375758 5.70224574,26.9375758 L10.4207849,26.9375758 C10.7967255,26.9375758 11.1013435,27.2415407 11.1013435,27.6166753 C11.1013435,27.9918098 10.7967255,28.2957747 10.4207849,28.2957747" id="Fill-11" fill="#FFFFFF"></path>
                    <path d="M9.87633811,30.1972532 L6.24669257,30.1972532 C5.87075203,30.1972532 5.56613403,29.8932883 5.56613403,29.5181537 C5.56613403,29.1430192 5.87075203,28.8390543 6.24669257,28.8390543 L9.87633811,28.8390543 C10.2522787,28.8390543 10.5568967,29.1430192 10.5568967,29.5181537 C10.5568967,29.8932883 10.2522787,30.1972532 9.87633811,30.1972532" id="Fill-13" fill="#FFFFFF"></path>
                    <path d="M9.24115014,32.0987317 L6.88188054,32.0987317 C6.50594,32.0987317 6.201322,31.7947668 6.201322,31.4196322 C6.201322,31.0444977 6.50594,30.7405328 6.88188054,30.7405328 L9.24115014,30.7405328 C9.61709068,30.7405328 9.92170868,31.0444977 9.92170868,31.4196322 C9.92170868,31.7947668 9.61709068,32.0987317 9.24115014,32.0987317" id="Fill-15" fill="#FFFFFF"></path>
                    <path d="M3.90913732,6.57909748 C3.74825328,6.57909748 3.58664332,6.52250586 3.45706497,6.40733059 L0.428851695,3.71836836 C0.148007871,3.46909358 0.122872576,3.03981218 0.372773671,2.75966101 C0.622584026,2.47960039 1.05278776,2.45433789 1.33354085,2.70379376 L4.36175412,5.39266545 C4.64259795,5.64194022 4.6676425,6.07131218 4.4177414,6.3513728 C4.28335378,6.50213288 4.09660852,6.57909748 3.90913732,6.57909748" id="Fill-17" fill="#FFFFFF"></path>
                    <path d="M11.6247474,6.3513728 C11.3748464,6.07131218 11.3998909,5.64194022 11.6807347,5.39266545 L14.708948,2.70379376 C14.9897011,2.45433789 15.4199048,2.4794193 15.6697152,2.75966101 C15.9196163,3.03981218 15.894481,3.46909358 15.6136372,3.71836836 L12.5854239,6.40733059 C12.4558455,6.52250586 12.2942356,6.57909748 12.1333515,6.57909748 C11.9458803,6.57909748 11.7591351,6.50222342 11.6247474,6.3513728 Z" id="Fill-19" fill="#FFFFFF"></path>
                    <g id="Group-23" transform="translate(7.259291, 0.036219)">
                        <mask id="mask-4" fill="white">
                            <use xlink:href="#path-3"></use>
                        </mask>
                        <g id="Clip-22"></g>
                        <path d="M0.756853689,5.03435446 C0.380913151,5.03435446 0.0762951493,4.73038954 0.0762951493,4.355255 L0.0762951493,0.733391201 C0.0762951493,0.358256658 0.380913151,0.0542917384 0.756853689,0.0542917384 C1.13279423,0.0542917384 1.43741223,0.358256658 1.43741223,0.733391201 L1.43741223,4.355255 C1.43741223,4.73038954 1.13279423,5.03435446 0.756853689,5.03435446" id="Fill-21" fill="#FFFFFF" mask="url(#mask-4)"></path>
                    </g>
                    <path d="M14.2772833,39.7046457 C10.4495499,39.7046457 7.33558623,36.5973582 7.33558623,32.7778312 L7.33558623,31.4649055 C7.33558623,31.089771 7.64020424,30.7858061 8.01614477,30.7858061 C8.39208531,30.7858061 8.69670331,31.089771 8.69670331,31.4649055 L8.69670331,32.7778312 C8.69670331,35.8483567 11.2001606,38.3464468 14.2772833,38.3464468 C17.3544061,38.3464468 19.8578634,35.8483567 19.8578634,32.7778312 L19.8578634,10.7750086 C19.8578634,6.95548157 22.971827,3.84819407 26.7995605,3.84819407 L28.2514187,3.84819407 C32.0791521,3.84819407 35.1931158,6.95548157 35.1931158,10.7750086 L35.1931158,14.7661214 C35.1931158,15.1412559 34.8884978,15.4452209 34.5125572,15.4452209 C34.1366167,15.4452209 33.8319987,15.1412559 33.8319987,14.7661214 L33.8319987,10.7750086 C33.8319987,7.704483 31.3285414,5.20639299 28.2514187,5.20639299 L26.7995605,5.20639299 C23.7224377,5.20639299 21.2189804,7.704483 21.2189804,10.7750086 L21.2189804,32.7778312 C21.2189804,36.5973582 18.1050168,39.7046457 14.2772833,39.7046457" id="Fill-24" fill="#FFFFFF"></path>
                </g>
            </g>
        </g>
    </g>
</svg>