<?xml version="1.0" encoding="UTF-8"?>
<svg width="66px" height="56px" viewBox="0 0 66 56" version="1.1" xmlns="http://www.w3.org/2000/svg" xmlns:xlink="http://www.w3.org/1999/xlink">
    <!-- Generator: Sketch 51.2 (57519) - http://www.bohemiancoding.com/sketch -->
    <title>creative2@1x</title>
    <desc>Created with Sketch.</desc>
    <defs></defs>
    <g id="Page-1" stroke="none" stroke-width="1" fill="none" fill-rule="evenodd">
        <g id="HOME-PAGE" transform="translate(-686.000000, -692.000000)">
            <g id="3NOTES" transform="translate(170.000000, 675.000000)">
                <g id="Group-10" transform="translate(390.000000, 0.000000)">
                    <g id="creative2" transform="translate(128.000000, 17.000000)">
                        <g id="Page-1">
                            <g id="Group-42" transform="translate(0.000000, 0.817740)">
                                <path d="M62.2080167,27.7637865 L62.2080167,1.9091627 C62.2080167,0.970526139 61.443177,0.206379706 60.5036888,0.206379706 L1.70337431,0.206379706 C0.763886166,0.206379706 5.01863324e-05,0.970526139 5.01863324e-05,1.9091627 L5.01863324e-05,38.2642817 L62.2080167,38.2642817 L62.2080167,34.4495664" id="Stroke-18" stroke="#282D33" stroke-width="2.01599979"></path>
                                <path d="M0.00491826058,38.227729 L0.00491826058,43.4704554 C0.00491826058,44.4757793 1.03423994,45.5949229 2.03997404,45.5949229 L60.6199705,45.5949229 C61.6257046,45.5949229 62.2269369,44.5620216 62.2269369,43.5566977 L62.2269369,38.227729" id="Stroke-20" stroke="#282D33" stroke-width="2.01599979"></path>
                                <path d="M24.1952825,45.636239 C24.0873819,46.9399009 24.3197446,49.8395458 24.0387012,51.2560246 C23.7817472,52.5516639 23.6020801,52.5957879 22.9130217,52.9778611 C22.5245795,53.1904582 21.8681423,53.487292 21.318602,53.725461" id="Stroke-22" stroke="#282D33" stroke-width="2.01599979"></path>
                                <path d="M40.8469571,53.7336841 C40.2934018,53.4935095 39.6264255,53.1916616 39.2339683,52.9775602 C38.5469175,52.595487 38.4109125,52.5518645 38.1549622,51.2562251 C37.8739187,49.8392449 38.104274,47.0118028 37.9983808,45.7076395" id="Stroke-24" stroke="#282D33" stroke-width="2.01599979"></path>
                                <path d="M19.6109116,53.6201151 L42.6273674,53.6201151" id="Stroke-26" stroke="#282D33" stroke-width="2.01599979"></path>
                                <ellipse id="Oval-2" stroke="#000000" cx="31.8757744" cy="14.7887316" rx="6.77515488" ry="6.76901368"></ellipse>
                                <path d="M35.4919176,14.8805265 L33.0001839,16.7490446 L30.7621144,18.4282066 C30.5517082,18.5860685 30.2531678,18.543473 30.0953058,18.3330668 C30.0334427,18.2506127 30,18.1503136 30,18.0472324 L30,14.4995223 L30,10.9524036 C30,10.6893614 30.2132378,10.4761236 30.47628,10.4761236 C30.5793114,10.4761236 30.6795647,10.5095341 30.7619979,10.5713421 L33.0001839,12.2495223 L35.4919565,14.1184663 C35.7023855,14.2762978 35.7450243,14.5748319 35.5871928,14.785261 C35.5601091,14.8213704 35.5280298,14.8534465 35.4919176,14.8805265 Z" id="Fill-28" fill="#F26722"></path>
                                <path d="M13.4841642,31.1982336 L19.099011,31.1982336" id="Stroke-30" stroke="#282D33" stroke-width="2.01599979"></path>
                                <path d="M63.6048027,31.1982336 L24.644651,31.1982336" id="Stroke-32" stroke="#282D33" stroke-width="2.01599979"></path>
                                <path d="M4.54668097,28.8008496 L4.54668097,33.5958183" id="Stroke-36" stroke="#282D33" stroke-width="2.01599979"></path>
                                <path d="M8.51943104,28.8008496 L8.51943104,33.5958183" id="Stroke-38" stroke="#282D33" stroke-width="2.01599979"></path>
                                <path d="M25.4269053,31.1982336 C25.4269053,32.7641321 24.1546818,34.0362053 22.5863589,34.0362053 C21.0170323,34.0362053 19.7448088,32.7641321 19.7448088,31.1982336 C19.7448088,29.6293267 21.0170323,28.3587577 22.5863589,28.3587577 C24.1546818,28.3587577 25.4269053,29.6293267 25.4269053,31.1982336 Z" id="Stroke-40" stroke="#282D33" stroke-width="2.01599979"></path>
                            </g>
                        </g>
                    </g>
                </g>
            </g>
        </g>
    </g>
</svg>