<?xml version="1.0" encoding="UTF-8"?>
<svg width="137px" height="60px" viewBox="0 0 137 60" version="1.1" xmlns="http://www.w3.org/2000/svg" xmlns:xlink="http://www.w3.org/1999/xlink">
    <!-- Generator: Sketch 47.1 (45422) - http://www.bohemiancoding.com/sketch -->
    <title>message (1)</title>
    <desc>Created with Sketch.</desc>
    <defs></defs>
    <g id="Page-1" stroke="none" stroke-width="1" fill="none" fill-rule="evenodd">
        <g id="HOME-PAGE" transform="translate(-652.000000, -5119.000000)" fill-rule="nonzero" fill="#FFFFFF">
            <g id="message-(1)" transform="translate(652.000000, 5119.000000)">
                <path d="M101.951125,22.700125 C101.951,22.603875 101.9295,22.4585 101.892125,22.37475 C101.79375,22.018 101.575125,21.692125 101.247875,21.464625 L92.086375,15.096125 L92.086375,8.269125 C92.086375,7.364125 91.352375,6.630125 90.447375,6.630125 L79.9075,6.630125 L70.939625,0.395375 C70.379125,0.00525 69.635,0.003625 69.07275,0.392125 L60.047,6.630125 L49.55325,6.630125 C48.648,6.630125 47.91425,7.364125 47.91425,8.269125 L47.91425,15.01575 L38.70825,21.378375 C38.255375,21.691375 38.010375,22.19175 38.002625,22.703375 C38.002125,22.713 38,22.722125 38,22.732125 L38.048875,58.2615 C38.0495,58.696125 38.22275,59.11275 38.530375,59.41975 C38.837625,59.726125 39.253875,59.898125 39.687875,59.898125 C39.68875,59.898125 39.689375,59.898125 39.690125,59.898125 L100.36325,59.81475 C101.26825,59.8135 102.00125,59.078625 102,58.1735 L101.951125,22.700125 Z M92.08625,19.0885 L97.3235,22.72825 L92.08625,26.36925 L92.08625,19.0885 Z M70.001875,3.7355 L74.165625,6.63 L65.814125,6.63 L70.001875,3.7355 Z M51.19225,9.908125 L88.80825,9.908125 L88.80825,28.64825 L76.17875,37.4285 L71.0295,33.43425 C71.0215,33.428 71.014625,33.424125 71.006875,33.4185 C70.431375,32.98675 69.617375,32.970875 69.020125,33.43425 L63.8335,37.457375 L51.19225,28.72075 L51.19225,9.908125 Z M47.91425,19.000375 L47.91425,26.455375 L42.521,22.728 L47.91425,19.000375 Z M41.28225,25.858375 L61.115875,39.56525 L41.32225,54.91825 L41.28225,25.858375 Z M44.484375,56.613625 L70.024875,36.803125 L95.47375,56.5435 L44.484375,56.613625 Z M78.893,39.533875 L98.6775,25.779375 L98.7175,54.91175 L78.893,39.533875 Z" id="Shape"></path>
                <path d="M81.09625,16.464125 L58.90425,16.464125 C57.99925,16.464125 57.26525,17.198125 57.26525,18.103125 C57.26525,19.008125 57.99925,19.742125 58.90425,19.742125 L81.09625,19.742125 C82.0015,19.742125 82.73525,19.008125 82.73525,18.103125 C82.73525,17.198125 82.0015,16.464125 81.09625,16.464125 Z" id="Shape"></path>
                <path d="M81.09625,24.986875 L58.90425,24.986875 C57.99925,24.986875 57.26525,25.720875 57.26525,26.625875 C57.26525,27.530875 57.99925,28.264875 58.90425,28.264875 L81.09625,28.264875 C82.0015,28.264875 82.73525,27.530875 82.73525,26.625875 C82.73525,25.720875 82.0015,24.986875 81.09625,24.986875 Z" id="Shape"></path>
                <g id="Group-38" opacity="0.840000033" transform="translate(0.000000, 27.000000)">
                    <path d="M21.7248832,25.0950656 C21.2877972,23.9084656 19.9745472,23.3028656 18.7933793,23.7414656 L10.1946996,26.9350656 C9.01273475,27.3742656 8.40930115,28.6918656 8.84638709,29.8782656 C9.18705115,30.8028656 10.0588324,31.3746656 10.9865941,31.3746656 C11.2493637,31.3746656 11.5171137,31.3286656 11.7780902,31.2316656 L20.3763715,28.0380656 C21.5587347,27.5994656 22.1621683,26.2816656 21.7248832,25.0950656 Z" id="Shape" transform="translate(15.285685, 27.486670) rotate(20.000000) translate(-15.285685, -27.486670) "></path>
                    <path d="M25.7094336,3.43895484 C25.2719493,2.25235484 23.9592969,1.64695484 22.7777305,2.08535484 L17.4699454,4.05675484 C16.2879805,4.49595484 15.6845469,5.81335484 16.1216329,6.99995484 C16.4622969,7.92435484 17.3342774,8.49635484 18.2618399,8.49635484 C18.5246094,8.49635484 18.7923594,8.45035484 19.053336,8.35335484 L24.3611211,6.38195484 C25.543086,5.94335484 26.1467188,4.62555484 25.7094336,3.43895484 Z" id="Shape" transform="translate(20.915573, 5.219499) rotate(20.000000) translate(-20.915573, -5.219499) "></path>
                    <path d="M9.19742868,13.3789571 C8.75987649,12.1923571 7.44702067,11.5865571 6.26527112,12.0253571 L2.32072619,13.4901571 C1.13857813,13.9293571 0.535050998,15.2469571 0.972204687,16.4333571 C1.31292156,17.3577571 2.18483794,17.9297571 3.11274347,17.9297571 C3.37555373,17.9297571 3.64334523,17.8837571 3.90436225,17.7867571 L7.84890718,16.3219571 C9.03125448,15.8831571 9.63478161,14.5655571 9.19742868,13.3789571 Z" id="Shape" transform="translate(5.084868, 14.906121) rotate(20.000000) translate(-5.084868, -14.906121) "></path>
                </g>
                <g id="Group-38" opacity="0.840000033" transform="translate(123.500000, 44.000000) scale(-1, -1) translate(-123.500000, -44.000000) translate(110.000000, 27.000000)">
                    <path d="M21.7248832,25.0950656 C21.2877972,23.9084656 19.9745472,23.3028656 18.7933793,23.7414656 L10.1946996,26.9350656 C9.01273475,27.3742656 8.40930115,28.6918656 8.84638709,29.8782656 C9.18705115,30.8028656 10.0588324,31.3746656 10.9865941,31.3746656 C11.2493637,31.3746656 11.5171137,31.3286656 11.7780902,31.2316656 L20.3763715,28.0380656 C21.5587347,27.5994656 22.1621683,26.2816656 21.7248832,25.0950656 Z" id="Shape" transform="translate(15.285685, 27.486670) rotate(20.000000) translate(-15.285685, -27.486670) "></path>
                    <path d="M25.7094336,3.43895484 C25.2719493,2.25235484 23.9592969,1.64695484 22.7777305,2.08535484 L17.4699454,4.05675484 C16.2879805,4.49595484 15.6845469,5.81335484 16.1216329,6.99995484 C16.4622969,7.92435484 17.3342774,8.49635484 18.2618399,8.49635484 C18.5246094,8.49635484 18.7923594,8.45035484 19.053336,8.35335484 L24.3611211,6.38195484 C25.543086,5.94335484 26.1467188,4.62555484 25.7094336,3.43895484 Z" id="Shape" transform="translate(20.915573, 5.219499) rotate(20.000000) translate(-20.915573, -5.219499) "></path>
                    <path d="M9.19742868,13.3789571 C8.75987649,12.1923571 7.44702067,11.5865571 6.26527112,12.0253571 L2.32072619,13.4901571 C1.13857813,13.9293571 0.535050998,15.2469571 0.972204687,16.4333571 C1.31292156,17.3577571 2.18483794,17.9297571 3.11274347,17.9297571 C3.37555373,17.9297571 3.64334523,17.8837571 3.90436225,17.7867571 L7.84890718,16.3219571 C9.03125448,15.8831571 9.63478161,14.5655571 9.19742868,13.3789571 Z" id="Shape" transform="translate(5.084868, 14.906121) rotate(20.000000) translate(-5.084868, -14.906121) "></path>
                </g>
            </g>
        </g>
    </g>
</svg>