<?xml version="1.0" encoding="UTF-8"?>
<svg width="144px" height="64px" viewBox="0 0 144 64" version="1.1" xmlns="http://www.w3.org/2000/svg" xmlns:xlink="http://www.w3.org/1999/xlink">
    <!-- Generator: Sketch 47.1 (45422) - http://www.bohemiancoding.com/sketch -->
    <title>message (1)</title>
    <desc>Created with Sketch.</desc>
    <defs>
        <linearGradient x1="50%" y1="0%" x2="50%" y2="100%" id="linearGradient-1">
            <stop stop-color="#FE430A" offset="0%"></stop>
            <stop stop-color="#FBA648" offset="100%"></stop>
        </linearGradient>
    </defs>
    <g id="Page-1" stroke="none" stroke-width="1" fill="none" fill-rule="evenodd" opacity="0.8">
        <g id="HOME-PAGE-V2" transform="translate(-648.000000, -5245.000000)" fill-rule="nonzero">
            <g id="Group-35" transform="translate(0.000000, 4630.000000)">
                <g id="message-(1)" transform="translate(648.000000, 615.000000)">
                    <path d="M107.160307,24.0025912 C107.160175,23.9008186 107.137577,23.7471025 107.098292,23.6585471 C106.994891,23.2813279 106.765095,22.9367551 106.421124,22.6962018 L96.7915182,15.9622961 L96.7915182,8.74358299 C96.7915182,7.78665676 96.0200146,7.01054201 95.0687737,7.01054201 L83.990365,7.01054201 L74.5642774,0.418060451 C73.9751387,0.00555122951 73.1929927,0.0038329918 72.6020146,0.414623975 L63.1150949,7.01054201 L52.0851679,7.01054201 C51.1336642,7.01054201 50.3624234,7.78665676 50.3624234,8.74358299 L50.3624234,15.8773094 L40.6860438,22.6050031 C40.2100292,22.9359621 39.9525109,23.4650471 39.944365,24.0060277 C39.9438394,24.0162049 39.9416058,24.0258535 39.9416058,24.0364273 L39.9929781,61.604373 C39.993635,62.0639355 40.1757372,62.5044652 40.4990803,62.8290799 C40.8220292,63.1530338 41.2595474,63.3349027 41.7157226,63.3349027 C41.7166423,63.3349027 41.7172993,63.3349027 41.7180876,63.3349027 L105.491299,63.2467439 C106.44254,63.2454221 107.212993,62.4683822 107.211679,61.5113238 L107.160307,24.0025912 Z M96.7913869,20.1837418 L102.296234,24.0323299 L96.7913869,27.8822398 L96.7913869,20.1837418 Z M73.5786131,3.94983197 L77.9551095,7.01040984 L69.1768905,7.01040984 L73.5786131,3.94983197 Z M53.8079124,10.476624 L93.3458978,10.476624 L93.3458978,30.292002 L80.0710949,39.5760369 L74.6587445,35.3526086 C74.6503358,35.346 74.6431095,35.3419027 74.6349635,35.3359549 C74.0300584,34.8794324 73.1744672,34.8626465 72.5467007,35.3526086 L67.0950657,39.6065686 L53.8079124,30.3686619 L53.8079124,10.476624 Z M50.3624234,20.0905605 L50.3624234,27.9733064 L44.6936058,24.0320656 L50.3624234,20.0905605 Z M43.391562,27.3420523 L64.2385839,41.8353873 L43.4336058,58.0692971 L43.391562,27.3420523 Z M46.7572993,59.8619477 L73.6027883,38.9147797 L100.351971,59.7877992 L46.7572993,59.8619477 Z M82.9240292,41.8022121 L103.719416,27.2585195 L103.76146,58.0624242 L82.9240292,41.8022121 Z" id="Shape" fill="url(#linearGradient-1)"></path>
                    <path d="M85.239854,17.4087879 L61.9139562,17.4087879 C60.9627153,17.4087879 60.1912117,18.1849027 60.1912117,19.1418289 C60.1912117,20.0987551 60.9627153,20.8748699 61.9139562,20.8748699 L85.239854,20.8748699 C86.1913577,20.8748699 86.9625985,20.0987551 86.9625985,19.1418289 C86.9625985,18.1849027 86.1913577,17.4087879 85.239854,17.4087879 Z" id="Shape" fill="#FF9721" opacity="0.899999976"></path>
                    <path d="M85.239854,26.4205482 L61.9139562,26.4205482 C60.9627153,26.4205482 60.1912117,27.1966629 60.1912117,28.1535891 C60.1912117,29.1105154 60.9627153,29.8866301 61.9139562,29.8866301 L85.239854,29.8866301 C86.1913577,29.8866301 86.9625985,29.1105154 86.9625985,28.1535891 C86.9625985,27.1966629 86.1913577,26.4205482 85.239854,26.4205482 Z" id="Shape" fill="#FF9721" opacity="0.899999976"></path>
                    <g id="Group-38" opacity="0.840000033" transform="translate(0.000000, 17.549180)" fill-opacity="0.599999964" fill="url(#linearGradient-1)">
                        <path d="M22.8349137,26.5349465 C22.3754949,25.2802629 20.9951446,24.6399153 19.7536249,25.1036809 L10.7155966,28.4805202 C9.47323944,28.9449202 8.83897347,30.3381202 9.29839227,31.5925924 C9.65646252,32.5702432 10.5727873,33.1748514 11.5479529,33.1748514 C11.8241487,33.1748514 12.1055793,33.126212 12.3798904,33.0236465 L21.4174999,29.6468071 C22.6602759,29.1830415 23.2945419,27.7896301 22.8349137,26.5349465 Z" id="Shape" transform="translate(16.066706, 29.063773) rotate(20.000000) translate(-16.066706, -29.063773) "></path>
                        <path d="M27.0230543,3.63627192 C26.5632167,2.38158831 25.1834946,1.74145225 23.9415562,2.20500635 L18.3625703,4.28951946 C17.1202131,4.75391946 16.4859471,6.14690799 16.9453659,7.40159159 C17.3034362,8.37903094 18.2199704,8.98385061 19.1949266,8.98385061 C19.4711223,8.98385061 19.752553,8.93521126 20.0268641,8.83264569 L25.60585,6.74813258 C26.8482072,6.284367 27.4826825,4.89095553 27.0230543,3.63627192 Z" id="Shape" transform="translate(21.984252, 5.518978) rotate(20.000000) translate(-21.984252, -5.518978) "></path>
                        <path d="M9.66737029,14.1466021 C9.20746142,12.8919185 7.82752538,12.2513595 6.58539446,12.7153366 L2.43930344,14.2641825 C1.19675365,14.7285825 0.562389371,16.1217825 1.02187938,17.3762546 C1.38000514,18.3536939 2.29647199,18.9585136 3.27178875,18.9585136 C3.54802728,18.9585136 3.82950156,18.9098743 4.10385521,18.8073087 L8.24994623,17.2584628 C9.49270544,16.7944857 10.1270697,15.4012857 9.66737029,14.1466021 Z" id="Shape" transform="translate(5.344679, 15.761390) rotate(20.000000) translate(-5.344679, -15.761390) "></path>
                    </g>
                    <g id="Group-38" opacity="0.7" transform="translate(129.500000, 35.500000) scale(-1, -1) translate(-129.500000, -35.500000) translate(115.000000, 17.500000)" fill="url(#linearGradient-1)">
                        <path d="M22.8349137,26.5349465 C22.3754949,25.2802629 20.9951446,24.6399153 19.7536249,25.1036809 L10.7155966,28.4805202 C9.47323944,28.9449202 8.83897347,30.3381202 9.29839227,31.5925924 C9.65646252,32.5702432 10.5727873,33.1748514 11.5479529,33.1748514 C11.8241487,33.1748514 12.1055793,33.126212 12.3798904,33.0236465 L21.4174999,29.6468071 C22.6602759,29.1830415 23.2945419,27.7896301 22.8349137,26.5349465 Z" id="Shape" transform="translate(16.066706, 29.063773) rotate(20.000000) translate(-16.066706, -29.063773) "></path>
                        <path d="M27.0230543,3.63627192 C26.5632167,2.38158831 25.1834946,1.74145225 23.9415562,2.20500635 L18.3625703,4.28951946 C17.1202131,4.75391946 16.4859471,6.14690799 16.9453659,7.40159159 C17.3034362,8.37903094 18.2199704,8.98385061 19.1949266,8.98385061 C19.4711223,8.98385061 19.752553,8.93521126 20.0268641,8.83264569 L25.60585,6.74813258 C26.8482072,6.284367 27.4826825,4.89095553 27.0230543,3.63627192 Z" id="Shape" transform="translate(21.984252, 5.518978) rotate(20.000000) translate(-21.984252, -5.518978) "></path>
                        <path d="M9.66737029,14.1466021 C9.20746142,12.8919185 7.82752538,12.2513595 6.58539446,12.7153366 L2.43930344,14.2641825 C1.19675365,14.7285825 0.562389371,16.1217825 1.02187938,17.3762546 C1.38000514,18.3536939 2.29647199,18.9585136 3.27178875,18.9585136 C3.54802728,18.9585136 3.82950156,18.9098743 4.10385521,18.8073087 L8.24994623,17.2584628 C9.49270544,16.7944857 10.1270697,15.4012857 9.66737029,14.1466021 Z" id="Shape" opacity="0.900000036" transform="translate(5.344679, 15.761390) rotate(20.000000) translate(-5.344679, -15.761390) "></path>
                    </g>
                </g>
            </g>
        </g>
    </g>
</svg>