<?xml version="1.0" encoding="UTF-8"?>
<svg width="52px" height="52px" viewBox="0 0 52 52" version="1.1" xmlns="http://www.w3.org/2000/svg" xmlns:xlink="http://www.w3.org/1999/xlink">
    <!-- Generator: Sketch 47.1 (45422) - http://www.bohemiancoding.com/sketch -->
    <title>refund</title>
    <desc>Created with Sketch.</desc>
    <defs></defs>
    <g id="Page-1" stroke="none" stroke-width="1" fill="none" fill-rule="evenodd">
        <g id="HOME-PAGE-V2" transform="translate(-745.000000, -4137.000000)" fill-rule="nonzero" fill="#FFFFFF">
            <g id="Group-18" transform="translate(715.000000, 4011.000000)">
                <g id="Group-20" transform="translate(30.000000, 126.000000)">
                    <g id="refund">
                        <g id="refund-(1)">
                            <path d="M50.91775,24.9169375 C50.3179219,24.9169375 49.83225,25.4016953 49.83225,26 C49.83225,29.2183125 49.2037812,32.3397344 47.9612656,35.277125 C46.7599844,38.1145781 45.0429688,40.6630859 42.8529766,42.8530781 C40.6629844,45.0430703 38.1144766,46.7600859 35.2770234,47.9613672 C32.3396328,49.2038828 29.2182109,49.8323516 25.9998984,49.8323516 C22.7815859,49.8323516 19.6601641,49.2038828 16.7235859,47.9613672 C13.8861328,46.7600859 11.3368125,45.0430703 9.14682031,42.8530781 C6.95764062,40.6631875 5.239,38.1145781 4.03853125,35.277125 C2.79672656,32.3397344 2.16673438,29.2183125 2.16673438,26 C2.16673438,22.7816875 2.79672656,19.6602656 4.03853125,16.7236875 C5.239,13.8855234 6.95764063,11.3369141 9.14682031,9.14692187 C11.3367109,6.95774219 13.8861328,5.23910156 16.7235859,4.03863281 C19.6601641,2.79611719 22.7815859,2.16683594 25.9998984,2.16683594 C29.2182109,2.16683594 32.3396328,2.79601562 35.2770234,4.03863281 C37.9018047,5.14952344 40.282125,6.70546094 42.3578594,8.66683594 L38.3810781,8.66683594 C37.7843984,8.66683594 37.2988281,9.15159375 37.2988281,9.74989844 C37.2988281,10.3482031 37.7843984,10.8329609 38.3810781,10.8329609 L44.8810781,10.8329609 C45.4809063,10.8329609 45.9665781,10.3482031 45.9665781,9.74989844 L45.9665781,3.25 C45.9665781,2.65169531 45.4810078,2.1669375 44.8810781,2.1669375 C44.2843984,2.1669375 43.7988281,2.65169531 43.7988281,3.25 L43.7988281,7.04823437 C39.1460469,2.67708594 32.8871563,0 26,0 C11.6407891,0 0,11.6407891 0,26 C0,40.3583984 11.6407891,52 26,52 C40.3583984,52 52,40.3583984 52,26 C52,25.4016953 51.5144297,24.9169375 50.91775,24.9169375 Z" id="Shape"></path>
                        </g>
                        <g id="indian-rupee" transform="translate(20.292683, 16.487805)">
                            <path d="M12.2568644,4.97045824 L9.44231565,4.97045824 C9.25461327,3.09473503 8.46454589,1.74333555 7.44398975,0.917539295 L12.2568891,0.917539295 C12.4861687,0.917539295 12.6727114,0.711757206 12.6727114,0.458769648 C12.6726867,0.205809313 12.4861441,0 12.2568644,0 L0.426062447,0 C0.196758091,0 0.0102401063,0.205809313 0.0102401063,0.458769648 C0.0102401063,0.711757206 0.196758091,0.917539295 0.426062447,0.917539295 L5.45516371,0.917539295 C6.79886305,1.19148891 8.32910506,2.42492917 8.61188004,4.97045824 L0.426062447,4.97045824 C0.196758091,4.97045824 0.0102401063,5.17626755 0.0102401063,5.42925511 C0.0102401063,5.68221545 0.196758091,5.88802476 0.426062447,5.88802476 L8.66532599,5.88802476 C8.64869507,7.16341636 8.25308152,8.19760815 7.47727626,8.96049101 C5.27814558,11.1167247 0.788438835,10.5661848 0.74449274,10.5622646 C0.578158869,10.543916 0.408271804,10.635659 0.3286704,10.8034372 C0.247884597,10.9699086 0.269253108,11.174384 0.380956629,11.3185866 L8.27568378,21.4023718 C8.35765398,21.5072365 8.47407042,21.5609756 8.59051153,21.5609756 C8.68674385,21.5609756 8.78418525,21.5242784 8.86257758,21.44955 C9.03601784,21.2844125 9.05504223,20.9947278 8.90533928,20.8020402 L1.65808295,11.5453307 C3.22158679,11.5899228 6.21789124,11.4234241 8.02851476,9.64733875 C8.98967828,8.70489 9.48033976,7.43736598 9.49697067,5.88802476 L12.2568891,5.88802476 C12.4861687,5.88802476 12.6727114,5.68221545 12.6727114,5.42925511 C12.6726867,5.17626755 12.4873531,4.97045824 12.2568644,4.97045824 Z" id="Shape"></path>
                        </g>
                    </g>
                </g>
            </g>
        </g>
    </g>
</svg>